<?xml version="1.0" encoding="utf-8"?>
<!-- Generator: Adobe Illustrator 19.1.0, SVG Export Plug-In . SVG Version: 6.00 Build 0)  -->
<svg version="1.1" baseProfile="tiny" xmlns="http://www.w3.org/2000/svg" xmlns:xlink="http://www.w3.org/1999/xlink" x="0px"
	 y="0px" viewBox="400 -114.6 1000 328.6" xml:space="preserve">
<g id="svg2" xmlns:svg="http://www.w3.org/2000/svg" xmlns:rdf="http://www.w3.org/1999/02/22-rdf-syntax-ns#" xmlns:cc="http://creativecommons.org/ns#" xmlns:dc="http://purl.org/dc/elements/1.1/">
	<path id="path2998" fill="#FFFFFF" d="M694.7,10.8h-94.3v28h66.9c-3.3,39.2-35.9,56-66.8,56c-39.4,0-73.8-31-73.8-74.5
		c0-42.3,32.8-75,73.9-75c31.7,0,50.4,20.2,50.4,20.2l19.6-20.3c0,0-25.1-28-71-28C541.2-82.7,496-33.5,496,19.8
		c0,52.2,42.5,103,105.1,103c55,0,95.3-37.7,95.3-93.4C696.4,17.6,694.6,10.8,694.7,10.8L694.7,10.8z"/>
	<path id="path3000" fill="#FFFFFF" d="M771.9-9.4c-38.7,0-66.4,30.2-66.4,65.5c0,35.8,26.9,66.6,66.9,66.6
		c36.2,0,65.8-27.7,65.8-65.8C838.2,13.1,803.7-9.4,771.9-9.4L771.9-9.4z M772.3,16.5c19,0,37.1,15.4,37.1,40.2
		c0,24.3-18,40.1-37.1,40.1c-21.1,0-37.7-16.9-37.7-40.3C734.5,33.6,750.9,16.5,772.3,16.5L772.3,16.5z"/>
	<path id="path3005" fill="#FFFFFF" d="M916.3-9.4c-38.7,0-66.4,30.2-66.4,65.5c0,35.8,26.9,66.6,66.9,66.6
		c36.2,0,65.8-27.7,65.8-65.8C982.6,13.1,948.1-9.4,916.3-9.4L916.3-9.4z M916.7,16.5c19,0,37.1,15.4,37.1,40.2
		c0,24.3-18,40.1-37.1,40.1c-21.1,0-37.7-16.9-37.7-40.3C878.9,33.6,895.3,16.5,916.7,16.5L916.7,16.5z"/>
	<path id="path3007" fill="#FFFFFF" d="M1058-9.4c-35.5,0-63.4,31.1-63.4,66c0,39.8,32.4,66.1,62.8,66.1c18.8,0,28.8-7.5,36.2-16.1
		v13c0,22.8-13.8,36.4-34.7,36.4c-20.2,0-30.3-15-33.8-23.5l-25.4,10.6c9,19,27.1,38.9,59.4,38.9c35.3,0,62.2-22.2,62.2-68.9V-5.4
		h-27.7V5.8C1085.1-3.4,1073.4-9.4,1058-9.4L1058-9.4z M1060.6,16.5c17.4,0,35.3,14.9,35.3,40.3c0,25.8-17.8,40-35.7,40
		c-18.9,0-36.5-15.4-36.5-39.8C1023.6,31.7,1041.9,16.5,1060.6,16.5L1060.6,16.5z"/>
	<path id="path3011" fill="#FFFFFF" d="M1244.5-9.5c-33.5,0-61.6,26.7-61.6,66c0,41.6,31.3,66.3,64.8,66.3c28,0,45.1-15.3,55.3-29
		l-22.8-15.2c-5.9,9.2-15.8,18.2-32.4,18.2c-18.6,0-27.1-10.2-32.4-20L1304,40l-4.6-10.8C1290.8,8.1,1270.9-9.5,1244.5-9.5
		L1244.5-9.5z M1245.6,15.9c12.1,0,20.8,6.4,24.4,14.1l-59.2,24.7C1208.4,35.6,1226.5,15.9,1245.6,15.9L1245.6,15.9z"/>
	<path id="path3015" fill="#FFFFFF" d="M1140.6,118.8h29.1V-75.9h-29.1V118.8z"/>
</g>
<g id="Layer_2" display="none">
	<path display="inline" fill-rule="evenodd" fill="#FFFFFF" d="M503.6-43.3c54.4,5.3,114.1,32.5,148.3,72c43.9,50,29,100-33.3,111.4
		c-62.3,12.3-148.3-19.3-192.2-69.3c-33.3-38.6-32.5-77.2-1.8-98.3l172.9,128.1L503.6-43.3L503.6-43.3z M1360,140.1h38.6
		l-52.6-182.5h-29.8l-50,182.5h37.7l21.9-86.9c2.6-11.4,3.5-21.1,5.3-31.6h0.9c1.8,9.7,3.5,20.2,6.1,30.7L1360,140.1L1360,140.1z
		 M784.3-42.4h-38.6l52.6,182.5h29.8l50-182.5h-37.7l-21.9,86.9c-2.6,10.5-3.5,21.1-5.3,31.6h-0.9c-1.8-9.7-2.6-20.2-6.1-30.7
		L784.3-42.4L784.3-42.4z M905.4-42.4v182.5h36V-42.4H905.4L905.4-42.4z M1145-42.4h-47.4l-15.8,182.5h38.6l5.3-131.6h0.9V12
		l6.1,40.4l17.5,87.7h28.1l14.9-86.9l6.1-44.8l0,0l8.8,131.6h36.9l-18.4-182.5h-48.3l-14.9,107.9l0,0L1145-42.4L1145-42.4z
		 M1030.9-42.4h-43c0,0-3.5,6.1-4.4,9.7c-14.9,36-0.9,62.3,12.3,87.7c11.4,21.9,23.7,43.9,13.2,67.6c-2.6,7-7.9,13.2-13.2,17.5h43.9
		c0,0,2.6-5.3,3.5-7c14-35.1,7-59.7-13.2-93c-0.9-2.6-2.6-5.3-3.5-7c-8.8-15.8-19.3-33.3-9.7-55.3
		C1020.4-30.1,1024.8-38,1030.9-42.4L1030.9-42.4z"/>
</g>
</svg>
