<?xml version="1.0" encoding="utf-8"?>
<!-- Generator: Adobe Illustrator 19.1.0, SVG Export Plug-In . SVG Version: 6.00 Build 0)  -->
<svg version="1.1" baseProfile="tiny" id="Layer_1" xmlns="http://www.w3.org/2000/svg" xmlns:xlink="http://www.w3.org/1999/xlink"
	 x="0px" y="0px" viewBox="0 0 200 39.1" xml:space="preserve">
<g>
	<path fill="none" d="M144.4,5.5c-1-0.5-2-0.7-3.1-0.7c-1.1,0-2.1,0.2-3.1,0.7c-1,0.5-1.8,1.3-2.6,2.3c-0.7,1.1-1.3,2.4-1.8,4.1
		c-0.4,1.7-0.7,3.7-0.7,6.1c0,2.4,0.2,4.4,0.7,6.1c0.4,1.7,1,3,1.8,4.1c0.7,1.1,1.6,1.8,2.6,2.3c1,0.5,2,0.7,3.1,0.7
		c1.1,0,2.1-0.2,3.1-0.7c1-0.5,1.8-1.3,2.6-2.3c0.7-1.1,1.3-2.4,1.8-4.1c0.4-1.7,0.7-3.7,0.7-6.1c0-2.4-0.2-4.4-0.7-6.1
		c-0.4-1.7-1-3.1-1.8-4.1C146.2,6.8,145.4,6,144.4,5.5z"/>
	<path fill="none" d="M171.9,23.9c0,1.1,0.2,2.1,0.5,3c0.3,0.9,0.8,1.7,1.4,2.4c0.6,0.7,1.3,1.2,2.2,1.6c0.9,0.4,1.8,0.6,2.9,0.6
		c1.1,0,2.2-0.2,3.1-0.6s1.7-0.9,2.3-1.5c0.6-0.7,1.1-1.4,1.5-2.3c0.3-0.9,0.5-1.9,0.5-2.9c0-1.1-0.2-2.1-0.5-3
		c-0.3-0.9-0.8-1.7-1.4-2.3c-0.6-0.6-1.3-1.1-2.2-1.4c-0.8-0.3-1.8-0.5-2.8-0.5c-1.2,0-2.2,0.2-3.1,0.6c-0.9,0.4-1.7,1-2.3,1.6
		c-0.6,0.7-1.1,1.4-1.4,2.3C172,22.2,171.9,23,171.9,23.9z"/>
	<path fill="none" d="M77.4,16.7c-0.6-0.7-1.2-1.2-1.9-1.5c-0.7-0.3-1.4-0.4-2.2-0.4c-0.8,0-1.5,0.1-2.1,0.4
		c-0.6,0.3-1.2,0.7-1.6,1.3c-0.4,0.6-0.8,1.4-1,2.3c-0.2,0.9-0.4,2-0.4,3.3c0,1.3,0.1,2.3,0.3,3.2c0.2,0.9,0.5,1.6,0.9,2.1
		c0.4,0.6,0.8,1,1.4,1.2c0.5,0.2,1.2,0.4,1.8,0.4c1.1,0,2-0.2,2.8-0.7c0.8-0.4,1.5-1.1,2.1-1.9V16.7z"/>
	<path fill="#7AC89C" d="M10.4,35.8H9.2c-1,0-1.7-0.5-2.3-1.1c-0.5-0.6-0.8-1.5-0.8-2.5c0-0.8,0-1.5,0.1-2.2
		c0.1-0.7,0.2-1.4,0.3-2.1c0.1-0.7,0.2-1.3,0.3-2c0.1-0.6,0.1-1.3,0.1-2c0-0.5-0.1-1-0.2-1.5c-0.1-0.5-0.4-0.9-0.7-1.3s-0.6-0.7-1-1
		c-0.4-0.3-0.9-0.5-1.4-0.7c0.5-0.1,1-0.4,1.4-0.7c0.4-0.3,0.7-0.6,1-1s0.5-0.8,0.7-1.3c0.1-0.5,0.2-1,0.2-1.5c0-0.7,0-1.3-0.1-2
		c-0.1-0.6-0.2-1.3-0.3-2c-0.1-0.7-0.2-1.4-0.3-2.1C6.2,8.4,6.1,7.6,6.1,6.8c0-1.1,0.3-1.9,0.8-2.5c0.5-0.6,1.3-0.9,2.3-0.9h1.2V0
		H9.3C8,0,6.9,0.2,5.9,0.5C5,0.9,4.1,1.3,3.5,2C2.9,2.6,2.4,3.4,2.1,4.2C1.8,5.1,1.6,6.1,1.6,7.2c0,0.7,0,1.4,0.1,2
		c0.1,0.7,0.2,1.3,0.3,2c0.1,0.7,0.2,1.3,0.3,2c0.1,0.7,0.1,1.3,0.1,2c0,0.9-0.2,1.6-0.6,2.1C1.5,17.8,0.9,18,0,18v3
		c0.9,0,1.5,0.3,1.9,0.8c0.4,0.5,0.6,1.2,0.6,2.1c0,0.7,0,1.3-0.1,2c-0.1,0.7-0.2,1.3-0.3,2c-0.1,0.7-0.2,1.3-0.3,2
		c-0.1,0.7-0.1,1.3-0.1,2c0,1.1,0.2,2,0.5,2.9c0.3,0.9,0.8,1.6,1.4,2.3c0.6,0.6,1.4,1.1,2.4,1.5c1,0.3,2.1,0.5,3.4,0.5h1.1V35.8z"/>
	<path fill="#7AC89C" d="M189.6,3.4h1.2c1,0,1.7,0.3,2.3,0.9c0.5,0.6,0.8,1.5,0.8,2.5c0,0.8,0,1.5-0.1,2.2c-0.1,0.7-0.2,1.4-0.3,2.1
		c-0.1,0.7-0.2,1.3-0.3,2c-0.1,0.6-0.1,1.3-0.1,2c0,0.5,0.1,1,0.2,1.5c0.1,0.5,0.4,0.9,0.7,1.3s0.6,0.7,1,1c0.4,0.3,0.9,0.5,1.4,0.7
		c-0.5,0.1-1,0.4-1.4,0.7c-0.4,0.3-0.7,0.6-1,1s-0.5,0.8-0.7,1.3c-0.1,0.5-0.2,1-0.2,1.5c0,0.7,0,1.3,0.1,2c0.1,0.6,0.2,1.3,0.3,2
		c0.1,0.7,0.2,1.4,0.3,2.1c0.1,0.7,0.1,1.4,0.1,2.2c0,1.1-0.3,1.9-0.8,2.5c-0.5,0.6-1.3,1.1-2.3,1.1h-1.2v3.2h1.1
		c1.3,0,2.5-0.2,3.4-0.5c1-0.3,1.8-0.8,2.4-1.5c0.6-0.6,1.1-1.4,1.4-2.3c0.3-0.9,0.5-1.8,0.5-2.9c0-0.7,0-1.4-0.1-2
		c-0.1-0.7-0.2-1.3-0.3-2c-0.1-0.7-0.2-1.3-0.3-2c-0.1-0.7-0.1-1.3-0.1-2c0-0.9,0.2-1.6,0.6-2.1c0.4-0.5,1-0.8,1.9-0.8v-1.5V18
		c-0.9,0-1.5-0.3-1.9-0.8c-0.4-0.5-0.6-1.2-0.6-2.1c0-0.7,0-1.3,0.1-2c0.1-0.7,0.2-1.3,0.3-2c0.1-0.7,0.2-1.3,0.3-2s0.1-1.3,0.1-2
		c0-1.1-0.2-2-0.5-2.9s-0.8-1.6-1.4-2.3c-0.6-0.6-1.4-1.1-2.4-1.5c-1-0.3-2.1-0.5-3.4-0.5h-1.1V3.4z"/>
	<path fill="#1B1F26" d="M145.2,4c-1.2-0.6-2.5-0.9-3.9-0.9c-1.4,0-2.7,0.3-3.9,0.9c-1.2,0.6-2.3,1.5-3.2,2.7
		c-0.9,1.2-1.6,2.8-2.1,4.7c-0.5,1.9-0.8,4.1-0.8,6.7c0,2.6,0.3,4.8,0.8,6.7c0.5,1.9,1.2,3.4,2.1,4.7c0.9,1.2,2,2.1,3.2,2.7
		c1.2,0.6,2.5,0.9,3.9,0.9c1.4,0,2.7-0.3,3.9-0.9c1.2-0.6,2.3-1.5,3.2-2.7c0.9-1.2,1.6-2.8,2.2-4.7c0.5-1.9,0.8-4.1,0.8-6.7
		c0-2.6-0.3-4.8-0.8-6.7c-0.5-1.9-1.2-3.4-2.2-4.7C147.5,5.5,146.4,4.6,145.2,4z M149.3,18.1c0,2.4-0.2,4.4-0.7,6.1
		c-0.4,1.7-1,3-1.8,4.1c-0.7,1.1-1.6,1.8-2.6,2.3c-1,0.5-2,0.7-3.1,0.7c-1.1,0-2.1-0.2-3.1-0.7c-1-0.5-1.8-1.3-2.6-2.3
		c-0.7-1.1-1.3-2.4-1.8-4.1c-0.4-1.7-0.7-3.7-0.7-6.1c0-2.4,0.2-4.4,0.7-6.1c0.4-1.7,1-3.1,1.8-4.1c0.7-1.1,1.6-1.9,2.6-2.3
		c1-0.5,2-0.7,3.1-0.7c1.1,0,2.1,0.2,3.1,0.7c1,0.5,1.8,1.3,2.6,2.3c0.7,1.1,1.3,2.4,1.8,4.1C149.1,13.7,149.3,15.7,149.3,18.1z"/>
	<circle fill="#1B1F26" cx="105.8" cy="15.4" r="2.7"/>
	<path fill="#1B1F26" d="M125.4,16.2c-0.5,0.8-1.1,1.6-1.8,2.4s-1.4,1.6-2.2,2.4l-9.9,10.2v1.5h18.1v-1.5h-15.8l9.1-9.3
		c0.8-0.9,1.6-1.7,2.3-2.5c0.7-0.8,1.4-1.7,1.9-2.5c0.6-0.9,1-1.8,1.3-2.7c0.3-0.9,0.5-2,0.5-3.1c0-1.3-0.2-2.5-0.7-3.5
		c-0.4-1-1-1.8-1.8-2.5c-0.7-0.7-1.6-1.1-2.6-1.5c-1-0.3-2-0.5-3.1-0.5c-1.1,0-2.2,0.2-3.2,0.5s-1.9,0.9-2.6,1.5
		c-0.8,0.7-1.4,1.5-1.9,2.5c-0.5,1-0.8,2.1-1,3.4l1.6,0.2c0,0,0.1-1.3,1.1-3c0.4-0.7,0.9-1.3,1.4-1.8c0.6-0.5,1.2-0.9,2-1.2
		c0.7-0.3,1.6-0.4,2.4-0.4c0.8,0,1.6,0.1,2.3,0.4c0.7,0.2,1.4,0.6,2,1.1c0.6,0.5,1,1.2,1.4,2c0.3,0.8,0.5,1.7,0.5,2.8
		c0,1-0.1,1.8-0.4,2.7C126.3,14.6,125.9,15.4,125.4,16.2z"/>
	<path fill="#1B1F26" d="M96,28.8c-0.3,0.2-0.6,0.4-1.1,0.6c-0.4,0.1-1,0.2-1.6,0.2c-0.8,0-2.1,0-3.4-0.3c-2.2-0.4-4.1-1.6-4.1-1.6
		l-1.7,2.8c0,0,2.5,2.7,9,2.7c1.4,0,6-0.5,7.9-4.3c0.4-0.8,0.5-1.8,0.5-2.9c0-0.9-0.2-1.6-0.5-2.2c-0.3-0.6-0.7-1.1-1.3-1.6
		c-0.5-0.4-1.1-0.8-1.7-1.1c-1.2-0.6-6.6-1.8-7.1-2c-0.5-0.2-0.9-0.5-1.2-0.8c-0.3-0.3-0.5-0.7-0.5-1.2c0-0.7,0.2-1.3,0.8-1.7
		c0.6-0.4,1.4-0.7,2.4-0.7c0.7,0,1.2,0.1,1.7,0.2c1.8,0.4,3.6,1.3,4.3,1.7l1-3.4c-0.6-0.3-1.9-1-3.1-1.5c-1.3-0.5-2.6-0.7-4.1-0.7
		c-1.3,0-2.5,0.2-3.5,0.5c-1,0.4-1.8,0.8-2.5,1.4c-0.7,0.6-1.2,1.3-1.5,2.1c-0.3,0.8-0.5,1.6-0.4,2.5c0,1,0.2,1.8,0.5,2.4
		c0.3,0.7,0.7,1.2,1.3,1.7c0.5,0.5,1.1,0.8,1.7,1.1c0.6,0.3,1.4,0.5,2.5,0.9c1.1,0.3,3.4,0.7,4.6,1.2c0.5,0.2,0.9,0.5,1.2,0.8
		c0.3,0.3,0.5,0.7,0.5,1.2c0,0.3,0,0.7-0.2,1C96.5,28.3,96.3,28.6,96,28.8z"/>
	<circle fill="#1B1F26" cx="105.8" cy="28.5" r="2.7"/>
	<polygon fill="#1B1F26" points="152.9,31.1 152.9,32.6 168.6,32.6 168.6,31.1 162.5,31.1 162.5,3.2 161,3.2 152.9,10.7 154,11.8 
		160.6,5.9 160.6,31.1 	"/>
	<path fill="#1B1F26" d="M82.6,32.8l0-29.4h-5.2v9.6c-0.7-0.6-1.4-1.2-2.3-1.5c-0.9-0.4-1.9-0.6-3.1-0.6c-1.4,0-2.7,0.3-3.8,0.9
		C67,12.2,66.1,13,65.3,14c-0.8,1-1.4,2.2-1.9,3.6c-0.4,1.4-0.7,2.9-0.7,4.5c0,1.8,0.2,3.3,0.6,4.7c0.4,1.4,0.9,2.5,1.6,3.5
		c0.7,0.9,1.6,1.6,2.5,2.1c1,0.5,2.1,0.7,3.2,0.7c0.8,0,1.5-0.1,2.1-0.2c0.7-0.2,3.6-1.3,4.6-3.1v3H82.6z M75.3,28.3
		c-0.8,0.4-1.7,0.7-2.8,0.7c-0.7,0-1.3-0.1-1.8-0.4c-0.5-0.2-1-0.6-1.4-1.2c-0.4-0.6-0.7-1.3-0.9-2.1c-0.2-0.9-0.3-1.9-0.3-3.2
		c0-1.3,0.1-2.3,0.4-3.3c0.2-0.9,0.6-1.7,1-2.3c0.4-0.6,1-1,1.6-1.3c0.6-0.3,1.4-0.4,2.1-0.4c0.8,0,1.5,0.1,2.2,0.4
		c0.7,0.3,1.3,0.8,1.9,1.5v9.7C76.7,27.2,76,27.9,75.3,28.3z"/>
	<path fill="#1B1F26" d="M30.9,27.1c0.1,0.6,0.2,1.2,0.4,1.8c0.3,0.9,0.8,1.6,1.4,2.2s1.4,1.1,2.3,1.5c0.9,0.3,1.9,0.5,3.1,0.5
		c0.7,0,1.4-0.1,2-0.2c0.5-0.1,1.5-0.5,2.8-1.3c-0.5-0.7-1-1.4-1.3-2.3c-0.6,0.2-1.2,0.3-1.9,0.3c-1.2,0-2.1-0.3-2.7-0.9
		c-0.5-0.5-0.8-1.3-0.9-2.2V15.1h4.8v-3.9h-4.8V4.9h-3.5l-1.5,6.3h-1.7l-1,3.9h2.6v11c0,0.3,0,0.5,0,0.7L30.9,27.1L30.9,27.1z"/>
	<path fill="#1B1F26" d="M61.2,32.8V11.2H56v15.6c-0.7,0.7-1.4,1.3-2.2,1.7C53,28.8,52.1,29,51.2,29c-1.2,0-2.1-0.4-2.7-1.1
		c-0.6-0.7-0.9-1.7-0.9-3.1V11.2h-5.2v13.7c0,1.2,0.2,2.3,0.5,3.3c0.3,1,0.8,1.9,1.4,2.6s1.4,1.3,2.3,1.7c0.9,0.4,1.9,0.6,3.1,0.6
		c0.7,0,1.4-0.1,2-0.2c0.6-0.1,2.3-0.9,4.3-2.8v2.7H61.2z"/>
	<path fill="#1B1F26" d="M23.8,28.8c-0.3,0.2-0.6,0.4-1.1,0.6c-0.4,0.1-1,0.2-1.6,0.2c-0.8,0-2.1,0-3.4-0.3
		c-2.2-0.4-4.1-1.6-4.1-1.6L12,30.6c0,0,2.5,2.7,9,2.7c1.4,0,6-0.5,7.9-4.3c0.4-0.8,0.5-1.8,0.5-2.9c0-0.9-0.2-1.6-0.5-2.2
		c-0.3-0.6-0.7-1.1-1.3-1.6c-0.5-0.4-1.1-0.8-1.7-1.1c-1.2-0.6-6.6-1.8-7.1-2c-0.5-0.2-0.9-0.5-1.2-0.8c-0.3-0.3-0.5-0.7-0.5-1.2
		c0-0.7,0.2-1.3,0.8-1.7c0.6-0.4,1.4-0.7,2.4-0.7c0.7,0,1.2,0.1,1.7,0.2c1.8,0.4,3.6,1.3,4.3,1.7l1-3.4c-0.6-0.3-1.9-1-3.1-1.5
		C22.9,11.3,21.5,11,20,11c-1.3,0-2.5,0.2-3.5,0.5c-1,0.4-1.8,0.8-2.5,1.4c-0.7,0.6-1.2,1.3-1.5,2.1c-0.3,0.8-0.5,1.6-0.4,2.5
		c0,1,0.2,1.8,0.5,2.4c0.3,0.7,0.7,1.2,1.3,1.7c0.5,0.5,1.1,0.8,1.7,1.1c0.6,0.3,1.4,0.5,2.5,0.9c1.1,0.3,3.4,0.7,4.6,1.2
		c0.5,0.2,0.9,0.5,1.2,0.8c0.3,0.3,0.5,0.7,0.5,1.2c0,0.3,0,0.7-0.2,1C24.2,28.3,24,28.6,23.8,28.8z"/>
	<path fill="#1B1F26" d="M175.5,14.9l8.3-11.4h-2.2l-8.1,11.2c-1.3,1.8-2.2,3.4-2.7,4.9c-0.6,1.4-0.8,2.7-0.8,3.9
		c0,1.5,0.2,2.9,0.6,4c0.4,1.2,1,2.2,1.8,3c0.8,0.8,1.7,1.5,2.8,1.9c1.1,0.4,2.3,0.7,3.6,0.7c1.4,0,2.6-0.2,3.7-0.7
		c1.1-0.5,2.1-1.1,2.9-1.9c0.8-0.8,1.4-1.8,1.9-2.9c0.5-1.1,0.7-2.3,0.7-3.7s-0.2-2.5-0.6-3.6c-0.4-1.1-1-2-1.7-2.7
		c-0.7-0.8-1.6-1.3-2.6-1.7c-1-0.4-2.1-0.6-3.3-0.6c-1.3,0-2.4,0.2-3.5,0.7c-1.1,0.5-2,1.1-2.8,2c0.3-0.5,0.6-1,0.9-1.5
		C174.8,16,175.1,15.4,175.5,14.9z M173.8,19c0.6-0.7,1.4-1.2,2.3-1.6c0.9-0.4,2-0.6,3.1-0.6c1,0,2,0.2,2.8,0.5
		c0.8,0.3,1.6,0.8,2.2,1.4c0.6,0.6,1.1,1.4,1.4,2.3c0.3,0.9,0.5,1.9,0.5,3c0,1.1-0.2,2-0.5,2.9c-0.3,0.9-0.8,1.7-1.5,2.3
		c-0.6,0.7-1.4,1.2-2.3,1.5s-1.9,0.6-3.1,0.6c-1.1,0-2-0.2-2.9-0.6c-0.9-0.4-1.6-0.9-2.2-1.6c-0.6-0.7-1.1-1.5-1.4-2.4
		c-0.3-0.9-0.5-1.9-0.5-3c0-0.9,0.2-1.7,0.5-2.6C172.7,20.5,173.2,19.7,173.8,19z"/>
</g>
</svg>
